<mxfile host="app.diagrams.net" modified="2021-09-01T18:00:01.059Z" agent="5.0 (Windows NT 10.0; Win64; x64) AppleWebKit/537.36 (KHTML, like Gecko) Chrome/92.0.4515.159 Safari/537.36" etag="j8X5BU-1nWy7XKACDZWT" version="15.0.3" type="github">
  <diagram id="H4slCl4mYdJ7hZng0pLj" name="Page-1">
    <mxGraphModel dx="1221" dy="644" grid="1" gridSize="10" guides="1" tooltips="1" connect="1" arrows="1" fold="1" page="1" pageScale="1" pageWidth="827" pageHeight="1169" math="0" shadow="0">
      <root>
        <mxCell id="0" />
        <mxCell id="1" parent="0" />
        <mxCell id="N3k0d1vubhuxOhTGLTtJ-4" style="edgeStyle=orthogonalEdgeStyle;rounded=0;orthogonalLoop=1;jettySize=auto;html=1;exitX=0.5;exitY=1;exitDx=0;exitDy=0;entryX=0.5;entryY=0;entryDx=0;entryDy=0;" edge="1" parent="1" source="N3k0d1vubhuxOhTGLTtJ-1" target="N3k0d1vubhuxOhTGLTtJ-5">
          <mxGeometry relative="1" as="geometry">
            <mxPoint x="290" y="100" as="targetPoint" />
          </mxGeometry>
        </mxCell>
        <mxCell id="N3k0d1vubhuxOhTGLTtJ-1" value="메인화면" style="whiteSpace=wrap;html=1;rounded=1;arcSize=50;align=center;verticalAlign=middle;strokeWidth=1;autosize=1;spacing=4;treeFolding=1;treeMoving=1;newEdgeStyle={&quot;edgeStyle&quot;:&quot;entityRelationEdgeStyle&quot;,&quot;startArrow&quot;:&quot;none&quot;,&quot;endArrow&quot;:&quot;none&quot;,&quot;segment&quot;:10,&quot;curved&quot;:1};" vertex="1" parent="1">
          <mxGeometry x="240" y="20" width="120" height="35" as="geometry" />
        </mxCell>
        <mxCell id="N3k0d1vubhuxOhTGLTtJ-6" style="edgeStyle=orthogonalEdgeStyle;rounded=0;orthogonalLoop=1;jettySize=auto;html=1;" edge="1" parent="1" source="N3k0d1vubhuxOhTGLTtJ-5">
          <mxGeometry relative="1" as="geometry">
            <mxPoint x="300" y="180" as="targetPoint" />
          </mxGeometry>
        </mxCell>
        <mxCell id="N3k0d1vubhuxOhTGLTtJ-5" value="이력조회 버튼클릭" style="rounded=0;whiteSpace=wrap;html=1;" vertex="1" parent="1">
          <mxGeometry x="240" y="100" width="120" height="40" as="geometry" />
        </mxCell>
        <mxCell id="N3k0d1vubhuxOhTGLTtJ-7" value="Login 화면" style="shape=document;whiteSpace=wrap;html=1;boundedLbl=1;" vertex="1" parent="1">
          <mxGeometry x="240" y="180" width="120" height="40" as="geometry" />
        </mxCell>
        <mxCell id="N3k0d1vubhuxOhTGLTtJ-8" value="" style="endArrow=classic;html=1;" edge="1" parent="1">
          <mxGeometry width="50" height="50" relative="1" as="geometry">
            <mxPoint x="299.8" y="214" as="sourcePoint" />
            <mxPoint x="299.8" y="254" as="targetPoint" />
          </mxGeometry>
        </mxCell>
        <mxCell id="N3k0d1vubhuxOhTGLTtJ-9" value="회원여부" style="rhombus;whiteSpace=wrap;html=1;" vertex="1" parent="1">
          <mxGeometry x="240" y="255" width="120" height="48" as="geometry" />
        </mxCell>
        <mxCell id="N3k0d1vubhuxOhTGLTtJ-10" value="" style="endArrow=classic;html=1;entryX=-0.001;entryY=0.379;entryDx=0;entryDy=0;entryPerimeter=0;" edge="1" parent="1" target="N3k0d1vubhuxOhTGLTtJ-11">
          <mxGeometry width="50" height="50" relative="1" as="geometry">
            <mxPoint x="360" y="279" as="sourcePoint" />
            <mxPoint x="400" y="279" as="targetPoint" />
          </mxGeometry>
        </mxCell>
        <mxCell id="N3k0d1vubhuxOhTGLTtJ-11" value="회원가입 화면" style="shape=document;whiteSpace=wrap;html=1;boundedLbl=1;" vertex="1" parent="1">
          <mxGeometry x="440" y="263" width="120" height="40" as="geometry" />
        </mxCell>
        <mxCell id="N3k0d1vubhuxOhTGLTtJ-12" value="" style="endArrow=classic;html=1;" edge="1" parent="1">
          <mxGeometry width="50" height="50" relative="1" as="geometry">
            <mxPoint x="560" y="280" as="sourcePoint" />
            <mxPoint x="600" y="280" as="targetPoint" />
          </mxGeometry>
        </mxCell>
        <mxCell id="N3k0d1vubhuxOhTGLTtJ-13" value="데이터 insert" style="rounded=0;whiteSpace=wrap;html=1;" vertex="1" parent="1">
          <mxGeometry x="600" y="263" width="120" height="37" as="geometry" />
        </mxCell>
        <mxCell id="N3k0d1vubhuxOhTGLTtJ-14" value="No" style="text;html=1;strokeColor=none;fillColor=none;align=center;verticalAlign=middle;whiteSpace=wrap;rounded=0;" vertex="1" parent="1">
          <mxGeometry x="374" y="258" width="40" height="20" as="geometry" />
        </mxCell>
        <mxCell id="N3k0d1vubhuxOhTGLTtJ-15" value="" style="endArrow=classic;html=1;" edge="1" parent="1">
          <mxGeometry width="50" height="50" relative="1" as="geometry">
            <mxPoint x="660" y="263" as="sourcePoint" />
            <mxPoint x="660" y="230" as="targetPoint" />
          </mxGeometry>
        </mxCell>
        <mxCell id="N3k0d1vubhuxOhTGLTtJ-18" value="" style="group" vertex="1" connectable="0" parent="1">
          <mxGeometry x="639" y="166" width="42" height="62" as="geometry" />
        </mxCell>
        <mxCell id="N3k0d1vubhuxOhTGLTtJ-16" value="&lt;b&gt;DB&lt;/b&gt;" style="shape=datastore;whiteSpace=wrap;html=1;" vertex="1" parent="N3k0d1vubhuxOhTGLTtJ-18">
          <mxGeometry width="42" height="42" as="geometry" />
        </mxCell>
        <mxCell id="N3k0d1vubhuxOhTGLTtJ-17" value="&lt;b&gt;connect&lt;/b&gt;" style="text;html=1;strokeColor=none;fillColor=none;align=center;verticalAlign=middle;whiteSpace=wrap;rounded=0;" vertex="1" parent="N3k0d1vubhuxOhTGLTtJ-18">
          <mxGeometry x="1" y="42" width="40" height="20" as="geometry" />
        </mxCell>
        <mxCell id="N3k0d1vubhuxOhTGLTtJ-19" value="" style="endArrow=classic;html=1;" edge="1" parent="1">
          <mxGeometry width="50" height="50" relative="1" as="geometry">
            <mxPoint x="300" y="303" as="sourcePoint" />
            <mxPoint x="300" y="350" as="targetPoint" />
          </mxGeometry>
        </mxCell>
        <mxCell id="N3k0d1vubhuxOhTGLTtJ-20" value="Yes" style="text;html=1;strokeColor=none;fillColor=none;align=center;verticalAlign=middle;whiteSpace=wrap;rounded=0;" vertex="1" parent="1">
          <mxGeometry x="297" y="310" width="40" height="20" as="geometry" />
        </mxCell>
        <mxCell id="N3k0d1vubhuxOhTGLTtJ-22" style="edgeStyle=orthogonalEdgeStyle;rounded=0;orthogonalLoop=1;jettySize=auto;html=1;exitX=0.5;exitY=1;exitDx=0;exitDy=0;" edge="1" parent="1" source="N3k0d1vubhuxOhTGLTtJ-21">
          <mxGeometry relative="1" as="geometry">
            <mxPoint x="300" y="430.0000000000001" as="targetPoint" />
          </mxGeometry>
        </mxCell>
        <mxCell id="N3k0d1vubhuxOhTGLTtJ-21" value="ID/PW 입력" style="shape=parallelogram;perimeter=parallelogramPerimeter;whiteSpace=wrap;html=1;fixedSize=1;" vertex="1" parent="1">
          <mxGeometry x="240" y="350" width="120" height="40" as="geometry" />
        </mxCell>
        <mxCell id="N3k0d1vubhuxOhTGLTtJ-23" value="이력목록 화면" style="shape=document;whiteSpace=wrap;html=1;boundedLbl=1;" vertex="1" parent="1">
          <mxGeometry x="240" y="430" width="120" height="40" as="geometry" />
        </mxCell>
        <mxCell id="N3k0d1vubhuxOhTGLTtJ-24" value="" style="endArrow=classic;html=1;" edge="1" parent="1">
          <mxGeometry width="50" height="50" relative="1" as="geometry">
            <mxPoint x="300.76" y="463" as="sourcePoint" />
            <mxPoint x="301" y="509" as="targetPoint" />
          </mxGeometry>
        </mxCell>
        <mxCell id="N3k0d1vubhuxOhTGLTtJ-26" value="상세기능 조회" style="rounded=0;whiteSpace=wrap;html=1;" vertex="1" parent="1">
          <mxGeometry x="240" y="510" width="120" height="40" as="geometry" />
        </mxCell>
        <mxCell id="N3k0d1vubhuxOhTGLTtJ-27" value="" style="group" vertex="1" connectable="0" parent="1">
          <mxGeometry x="447" y="417" width="42" height="62" as="geometry" />
        </mxCell>
        <mxCell id="N3k0d1vubhuxOhTGLTtJ-28" value="&lt;b&gt;DB&lt;/b&gt;" style="shape=datastore;whiteSpace=wrap;html=1;" vertex="1" parent="N3k0d1vubhuxOhTGLTtJ-27">
          <mxGeometry y="5" width="42" height="42" as="geometry" />
        </mxCell>
        <mxCell id="N3k0d1vubhuxOhTGLTtJ-29" value="&lt;b&gt;connect&lt;/b&gt;" style="text;html=1;strokeColor=none;fillColor=none;align=center;verticalAlign=middle;whiteSpace=wrap;rounded=0;" vertex="1" parent="N3k0d1vubhuxOhTGLTtJ-27">
          <mxGeometry x="1" y="42" width="40" height="20" as="geometry" />
        </mxCell>
        <mxCell id="N3k0d1vubhuxOhTGLTtJ-30" value="" style="endArrow=classic;html=1;entryX=1;entryY=0.25;entryDx=0;entryDy=0;" edge="1" parent="1">
          <mxGeometry width="50" height="50" relative="1" as="geometry">
            <mxPoint x="440" y="445" as="sourcePoint" />
            <mxPoint x="360" y="445.0000000000001" as="targetPoint" />
          </mxGeometry>
        </mxCell>
        <mxCell id="N3k0d1vubhuxOhTGLTtJ-34" value="" style="endArrow=classic;html=1;edgeStyle=orthogonalEdgeStyle;entryX=1;entryY=0.5;entryDx=0;entryDy=0;exitX=0.5;exitY=1;exitDx=0;exitDy=0;" edge="1" parent="1" source="N3k0d1vubhuxOhTGLTtJ-29" target="N3k0d1vubhuxOhTGLTtJ-26">
          <mxGeometry width="50" height="50" relative="1" as="geometry">
            <mxPoint x="468" y="490" as="sourcePoint" />
            <mxPoint x="470" y="510" as="targetPoint" />
            <Array as="points">
              <mxPoint x="468" y="530" />
            </Array>
          </mxGeometry>
        </mxCell>
        <mxCell id="N3k0d1vubhuxOhTGLTtJ-35" value="지난 조회결과 출력" style="whiteSpace=wrap;html=1;rounded=1;arcSize=50;align=center;verticalAlign=middle;strokeWidth=1;autosize=1;spacing=4;treeFolding=1;treeMoving=1;newEdgeStyle={&quot;edgeStyle&quot;:&quot;entityRelationEdgeStyle&quot;,&quot;startArrow&quot;:&quot;none&quot;,&quot;endArrow&quot;:&quot;none&quot;,&quot;segment&quot;:10,&quot;curved&quot;:1};" vertex="1" parent="1">
          <mxGeometry x="230" y="593" width="140" height="30" as="geometry" />
        </mxCell>
        <mxCell id="N3k0d1vubhuxOhTGLTtJ-36" value="" style="endArrow=classic;html=1;entryX=0.5;entryY=0;entryDx=0;entryDy=0;" edge="1" parent="1" source="N3k0d1vubhuxOhTGLTtJ-26" target="N3k0d1vubhuxOhTGLTtJ-35">
          <mxGeometry width="50" height="50" relative="1" as="geometry">
            <mxPoint x="240" y="600" as="sourcePoint" />
            <mxPoint x="290" y="550" as="targetPoint" />
          </mxGeometry>
        </mxCell>
        <mxCell id="N3k0d1vubhuxOhTGLTtJ-37" value="" style="endArrow=classic;html=1;fillColor=#FF3333;strokeColor=#FF0000;entryX=-0.018;entryY=0.536;entryDx=0;entryDy=0;entryPerimeter=0;" edge="1" parent="1" target="N3k0d1vubhuxOhTGLTtJ-1">
          <mxGeometry width="50" height="50" relative="1" as="geometry">
            <mxPoint x="230" y="610" as="sourcePoint" />
            <mxPoint x="160" y="40" as="targetPoint" />
            <Array as="points">
              <mxPoint x="160" y="610" />
              <mxPoint x="160" y="39" />
            </Array>
          </mxGeometry>
        </mxCell>
      </root>
    </mxGraphModel>
  </diagram>
</mxfile>
